# xmcd
#
# Track frame offsets:
# 150
# 15621
# 35085
# 60702
# 81433
# 98371
# 119929
# 136259
# 151713
# 176856
# 194513
# 212802
# 228792
# 247666
# 263733
# 280162
#
# Disc length: 3999 seconds
#
#
# Revision: 5
# Processed by: cddbd v1.5.1PL2 Copyright (c) Steve Scherf et al.
# Submitted via: FreeRIP 2.60 
#
DISCID=da0f9d10
DTITLE=Various Artist - Black Total 2005
DYEAR=2005
DGENRE=Hip-Hop
TTITLE0=Beyonce - Naughty Girl
TTITLE1=Usher - Yeah
TTITLE2=Tragedy - Helhoi
TTITLE3=Outlandish - Wa Lou
TTITLE4=Akon - Locked Up
TTITLE5=Casual - Porto Rico
TTITLE6=Black Eyed Peas - Lets Get Retarded
TTITLE7=The Beatnuts - Hot
TTITLE8=Nelly - My Place
TTITLE9=Cassidy - Get No Better
TTITLE10=Cornega - Dangerous
TTITLE11=E-40 - Show
TTITLE12=Mario Winans - I Dont Wanna Know
TTITLE13=Jadakiss - Im Going Back
TTITLE14=Marques Houston - That Girl
TTITLE15=Ja Rule R Kelly Ashanti - Wonderful
EXTD=
EXTT0=
EXTT1=
EXTT2=
EXTT3=
EXTT4=
EXTT5=
EXTT6=
EXTT7=
EXTT8=
EXTT9=
EXTT10=
EXTT11=
EXTT12=
EXTT13=
EXTT14=
EXTT15=
PLAYORDER=
